# xmcd
#
# Track frame offsets: 
#        150
#        14927
#        32084
#        46198
#        58583
#        70102
#        81349
#        92776
#        107036
#        126948
#        144575
#        159847
#        173541
#        195856
#
# Disc length: 2766 seconds
#
# Revision: 4
# Processed by: cddbd v1.5.2PL0 Copyright (c) Steve Scherf et al.
# Submitted via: ExactAudioCopy v0.99pb3
#
DISCID=b50acc0e
DTITLE=Ted Hawkins - Songs From The Boardwalk
DYEAR=1995
DGENRE=Blues
TTITLE0=Searching For My Love
TTITLE1=I Got What I Wanted
TTITLE2=Ladder Of Success
TTITLE3=Having A Party
TTITLE4=There Stands The Glass
TTITLE5=Quiet Place
TTITLE6=Good Times
TTITLE7=Too Busy Thinking About My Baby
TTITLE8=Just My Imagination
TTITLE9=He Will Break Your Heart
TTITLE10=Gypsy Woman
TTITLE11=Somebody Have Mercy
TTITLE12=Share Your Love With Me
TTITLE13=All I Have To Offer You Is Me
EXTD=ECD 28000-2\n\nTed Hawkins:  vocals and guitar\n\nRecorded on Sep
EXTD=tember 15 - 17, 1985 at Audio Media Recorders, Inc, Nashville, Te
EXTD=nn.
EXTT0=
EXTT1=
EXTT2=
EXTT3=
EXTT4=
EXTT5=
EXTT6=
EXTT7=
EXTT8=
EXTT9=
EXTT10=
EXTT11=
EXTT12=
EXTT13=
PLAYORDER=
